#!OML:ASF C:\ViconDB\ViconDB\414\Spring2016\042216\male.ASF
:FULLY-SPECIFIED
:DEGREES
982
root 12.8784 17.595 4.10311 -175.077 74.3458 -175.345
lowerback -2.90693 -1.68155 3.06608
upperback -0.496261 -2.32154 -0.761289
thorax 0.965703 -1.14856 -2.58227
lowerneck -0.30698 13.8814 -1.11587
upperneck -2.66022 18.5472 -7.75857
head -0.109515 9.37528 -2.13642
rclavicle -1.98847e-014 0
rhumerus -28.504 3.66806 -97.5567
rradius 26.3636
rwrist 28.9531
rhand 12.8681 -17.7581
rfingers 7.12502
rthumb 37.8413 -43.6003
lclavicle -1.98847e-014 0
lhumerus -34.2376 10.5176 91.4738
lradius 33.2751
lwrist -14.6144
lhand -5.82264 12.1904
lfingers 7.12502
lthumb 20.0028 41.1809
rfemur -4.99808 10.1377 20.132
rtibia 16.0488
rfoot -14.1066 -7.44268
rtoes -2.94843
lfemur -4.20842 -5.18568 -19.0372
ltibia 20.4696
lfoot -22.6104 21.7844
ltoes -11.6031
983
root 12.8725 17.592 4.09908 -174.751 74.2896 -175.01
lowerback -2.85676 -1.7001 3.24389
upperback -0.46594 -2.35143 -0.717439
thorax 0.96142 -1.16287 -2.63663
lowerneck -0.355623 13.8741 -1.11934
upperneck -2.65892 18.5401 -7.79235
head -0.0983375 9.37147 -2.14182
rclavicle 7.72775e-015 1.0138e-014
rhumerus -28.4559 4.08956 -97.7152
rradius 26.5516
rwrist 28.5884
rhand 12.7743 -17.9105
rfingers 7.12502
rthumb 37.7527 -43.7766
lclavicle 7.72775e-015 1.0138e-014
lhumerus -34.183 10.3956 91.5616
lradius 33.2898
lwrist -14.5159
lhand -5.56341 12.1702
lfingers 7.12502
lthumb 20.252 41.1344
rfemur -5.09144 9.8938 20.2057
rtibia 16.1977
rfoot -14.1376 -7.23708
rtoes -3.03394
lfemur -4.40464 -4.77796 -18.9066
ltibia 20.7266
lfoot -22.3906 21.3987
ltoes -11.7674
984
root 12.8682 17.5892 4.09616 -174.844 74.2616 -175.098
lowerback -2.80979 -1.70873 3.29656
upperback -0.433222 -2.36385 -0.712683
thorax 0.965938 -1.16856 -2.66066
lowerneck -0.345828 13.8785 -1.10196
upperneck -2.70905 18.543 -7.81961
head -0.111264 9.3748 -2.15555
rclavicle -3.16813e-015 3.97569e-016
rhumerus -28.4166 4.38105 -97.8116
rradius 26.7097
rwrist 28.3754
rhand 12.8936 -17.7043
rfingers 7.12502
rthumb 37.8654 -43.54
lclavicle -3.16813e-015 3.97569e-016
lhumerus -34.1441 10.3731 91.5606
lradius 33.3035
lwrist -14.5174
lhand -5.82746 12.3103
lfingers 7.12502
lthumb 19.9982 41.3012
rfemur -5.13158 9.72871 20.1612
rtibia 16.2757
rfoot -14.2115 -7.10988
rtoes -2.91368
lfemur -4.52945 -4.50875 -18.9142
ltibia 20.9346
lfoot -22.3271 21.1135
ltoes -11.6479
985
root 12.8647 17.5879 4.09407 -175.019 74.2307 -175.297
lowerback -2.81165 -1.75733 3.23261
upperback -0.397965 -2.42789 -0.682473
thorax 1.0027 -1.19974 -2.59657
lowerneck -0.341609 13.9394 -1.05049
upperneck -2.74311 18.6228 -7.86776
head -0.110195 9.41576 -2.17737
rclavicle -1.84373e-014 4.37326e-015
rhumerus -28.3505 4.66675 -97.9129
rradius 26.7905
rwrist 28.3289
rhand 12.9605 -17.5313
rfingers 7.12502
rthumb 37.9285 -43.3499
lclavicle -1.84373e-014 4.37326e-015
lhumerus -34.1127 10.3278 91.5743
lradius 33.3582
lwrist -14.2586
lhand -6.0554 12.4002
lfingers 7.12502
lthumb 19.7791 41.4138
rfemur -5.18881 9.63874 20.085
rtibia 16.345
rfoot -14.2186 -7.07305
rtoes -3.05469
lfemur -4.61711 -4.33875 -18.9569
ltibia 21.0225
lfoot -22.3285 20.9256
ltoes -11.6674
986
root 12.8621 17.5885 4.0939 -174.867 74.1805 -175.146
lowerback -2.79996 -1.74194 3.3256
upperback -0.358555 -2.41105 -0.652611
thorax 1.03524 -1.19001 -2.61791
lowerneck -0.322076 13.9367 -0.982948
upperneck -2.75046 18.6195 -7.93309
head -0.102924 9.41492 -2.20774
rclavicle 1.66793e-014 -5.76476e-015
rhumerus -28.2773 4.84489 -97.9206
rradius 26.9105
rwrist 28.2319
rhand 12.8661 -17.5082
rfingers 7.12502
rthumb 37.8394 -43.351
lclavicle 1.66793e-014 -5.76476e-015
lhumerus -34.0821 10.3462 91.5277
lradius 33.3488
lwrist -14.3089
lhand -6.14254 12.1313
lfingers 7.12502
lthumb 19.6953 41.1536
rfemur -5.21541 9.68323 20.1303
rtibia 16.3902
rfoot -14.2495 -7.16546
rtoes -3.01576
lfemur -4.62487 -4.28282 -18.8921
ltibia 20.9848
lfoot -22.3222 20.7747
ltoes -11.6433
987
root 12.8601 17.5916 4.09021 -175.104 74.1466 -175.422
lowerback -2.81257 -1.75335 3.29453
upperback -0.344851 -2.42613 -0.643615
thorax 1.05701 -1.19711 -2.59249
lowerneck -0.264957 13.9679 -0.91497
upperneck -2.76529 18.6605 -8.0119
head -0.10107 9.43727 -2.24497
rclavicle -4.11174e-014 -3.57812e-015
rhumerus -28.2478 4.93931 -97.959
rradius 26.9984
rwrist 28.2815
rhand 12.6379 -17.5754
rfingers 7.12502
rthumb 37.6238 -43.476
lclavicle -4.11174e-014 -3.57812e-015
lhumerus -34.0744 10.3976 91.4764
lradius 33.4158
lwrist -13.8469
lhand -6.33958 12.2887
lfingers 7.12502
lthumb 19.5059 41.3302
rfemur -5.23936 9.76837 20.0326
rtibia 16.3996
rfoot -14.2658 -7.26595
rtoes -2.90931
lfemur -4.58578 -4.26471 -18.9736
ltibia 20.8241
lfoot -22.2508 20.7218
ltoes -11.6858
988
root 12.8586 17.5958 4.08801 -175.232 74.1044 -175.603
lowerback -2.82471 -1.77818 3.23241
upperback -0.343779 -2.45818 -0.606052
thorax 1.06698 -1.21318 -2.52058
lowerneck -0.24056 13.9989 -0.775818
upperneck -2.70907 18.7095 -8.17245
head -0.056025 9.46129 -2.30926
rclavicle -8.13775e-016 -1.59028e-015
rhumerus -28.2279 5.12901 -97.9747
rradius 27.0747
rwrist 28.2099
rhand 12.554 -17.5073
rfingers 7.12502
rthumb 37.5445 -43.429
lclavicle -8.13775e-016 -1.59028e-015
lhumerus -34.0832 10.4241 91.452
lradius 33.4759
lwrist -13.2682
lhand -6.398 12.498
lfingers 7.12502
lthumb 19.4497 41.5452
rfemur -5.27288 9.85034 19.9717
rtibia 16.3761
rfoot -14.2809 -7.39763
rtoes -2.84414
lfemur -4.52995 -4.15833 -19.0122
ltibia 20.5683
lfoot -22.1078 20.589
ltoes -11.7989
989
root 12.8609 17.6004 4.08564 -175.596 74.0713 -175.992
lowerback -2.86376 -1.782 3.15557
upperback -0.32575 -2.46237 -0.618949
thorax 1.10976 -1.21459 -2.49282
lowerneck -0.242654 14.0098 -0.71425
upperneck -2.62222 18.7307 -8.19323
head -0.0195062 9.46886 -2.31857
rclavicle 3.11502e-014 -1.78906e-015
rhumerus -28.2079 5.08056 -97.9599
rradius 27.1309
rwrist 28.2936
rhand 12.5325 -17.4821
rfingers 7.12502
rthumb 37.5242 -43.4092
lclavicle 3.11502e-014 -1.78906e-015
lhumerus -34.1226 10.3982 91.3868
lradius 33.4816
lwrist -12.7686
lhand -6.72331 12.4568
lfingers 7.12502
lthumb 19.1369 41.5353
rfemur -5.28751 9.52569 19.8344
rtibia 16.3768
rfoot -14.2228 -7.14345
rtoes -2.99652
lfemur -4.36274 -4.08615 -19.1229
ltibia 20.2044
lfoot -22.0302 20.4802
ltoes -11.7962
990
root 12.8627 17.6048 4.08337 -176.154 74.0284 -176.622
lowerback -2.94265 -1.79069 3.02037
upperback -0.319759 -2.47174 -0.653501
thorax 1.16366 -1.21874 -2.45602
lowerneck -0.200622 14.0346 -0.660442
upperneck -2.59569 18.7646 -8.20765
head -0.0101123 9.48537 -2.33163
rclavicle 1.91703e-014 -4.07509e-015
rhumerus -28.2074 5.00478 -97.9353
rradius 27.1797
rwrist 28.2856
rhand 12.629 -17.5339
rfingers 7.12502
rthumb 37.6154 -43.4368
lclavicle 1.91703e-014 -4.07509e-015
lhumerus -34.2098 10.626 91.1552
lradius 33.5263
lwrist -12.9382
lhand -6.64864 12.5426
lfingers 7.12502
lthumb 19.2087 41.6139
rfemur -5.30531 9.81265 19.6473
rtibia 16.387
rfoot -14.3061 -7.51146
rtoes -2.83024
lfemur -4.19056 -4.20294 -19.3268
ltibia 19.7777
lfoot -21.995 20.5047
ltoes -11.5113
